<?xml version="1.0" encoding="UTF-8" standalone="no"?>
<!-- Created with Inkscape (http://www.inkscape.org/) -->

<svg
   xmlns:dc="http://purl.org/dc/elements/1.1/"
   xmlns:cc="http://creativecommons.org/ns#"
   xmlns:rdf="http://www.w3.org/1999/02/22-rdf-syntax-ns#"
   xmlns:svg="http://www.w3.org/2000/svg"
   xmlns="http://www.w3.org/2000/svg"
   xmlns:sodipodi="http://sodipodi.sourceforge.net/DTD/sodipodi-0.dtd"
   xmlns:inkscape="http://www.inkscape.org/namespaces/inkscape"
   version="1.1"
   id="svg2"
   xml:space="preserve"
   width="767.25336"
   height="765.97333"
   viewBox="0 0 767.25336 765.97333"
   sodipodi:docname="dharma-wheel-publicdomainvectors.org.svg"
   inkscape:version="0.92.5 (2060ec1f9f, 2020-04-08)"><metadata
     id="metadata8"><rdf:RDF><cc:Work
         rdf:about=""><dc:format>image/svg+xml</dc:format><dc:type
           rdf:resource="http://purl.org/dc/dcmitype/StillImage" /><dc:title></dc:title></cc:Work></rdf:RDF></metadata><defs
     id="defs6" /><sodipodi:namedview
     pagecolor="#fff"
     bordercolor="#aaa"
     borderopacity="1"
     objecttolerance="10"
     gridtolerance="10"
     guidetolerance="10"
     inkscape:pageopacity="0"
     inkscape:pageshadow="2"
     inkscape:window-width="1600"
     inkscape:window-height="849"
     id="namedview4"
     showgrid="false"
     inkscape:zoom="3.485807"
     inkscape:cx="368.73082"
     inkscape:cy="755.08937"
     inkscape:window-x="0"
     inkscape:window-y="27"
     inkscape:window-maximized="1"
     inkscape:current-layer="g12" /><g
     id="g10"
     inkscape:groupmode="layer"
     inkscape:label="ink_ext_XXXXXX"
     transform="matrix(1.3333333,0,0,-1.3333333,0,765.97333)"><g
       id="g12"
       transform="scale(0.1)"><path
         d="m 4172.71,2855.37 -121.67,124.87 0.64,48.74 c 63.57,-4.55 121.1,-32.52 159.54,-78.13 l 6.4,-7.6 9.67,-2.27 c 78.35,-18.38 160.68,-29.23 218.93,-33.22 0.38,-14.17 0.6,-28.39 0.6,-42.64 0,-4.46 -0.13,-8.86 -0.16,-13.31 z m 270.24,-99.51 c -58.27,-2.56 -140.19,-11.25 -218.41,-27.46 l -9.74,-2.03 -6.6,-7.44 c -39.6,-44.61 -97.85,-71.25 -161.51,-74.01 l 0.63,48.77 124.88,121.68 273.62,-3.56 c -0.63,-18.74 -1.59,-37.39 -2.87,-55.95 M 4071.5,1848.75 c -35.01,39.75 -80.87,98.71 -120.61,160.92 3.23,78.09 -27.88,156.07 -86.31,215.41 -53.71,54.53 -123.11,86.23 -195.63,89.41 l -1.98,0.37 c -87.18,45.63 -181.54,120.82 -242.35,176.49 46.63,67.75 80.86,144.61 99.64,227.28 128.16,-7.59 277.59,-48.88 310.61,-58.39 52.11,-47.82 121.4,-74.57 196.03,-75.55 1.39,-0.02 2.76,-0.02 4.13,-0.02 81.73,0 157.88,31.41 211.06,86.87 68.81,13.68 139.23,21.45 191.54,24.09 -34.71,-321.16 -166.8,-613.5 -366.13,-846.88 m -78.52,-85.41 -197.04,200.08 1.34,174.34 34.72,34.19 c 42,-47.94 63.22,-108.3 58.46,-167.73 l -0.8,-9.92 5.29,-8.44 c 44.33,-70.64 97.39,-138.55 136.46,-182.28 -12.58,-13.64 -25.38,-27.06 -38.43,-40.24 m -69.31,-65.9 c -43.13,39.75 -110.25,93.85 -180.21,139.26 l -8.34,5.41 -9.92,-0.64 c -59.51,-3.93 -119.53,18.28 -166.82,61.01 l 34.73,34.2 174.34,-1.35 197.05,-200.07 c -13.38,-12.86 -27,-25.43 -40.83,-37.82 m -895.68,-392.36 c 2.84,53.01 11.58,128.16 27.08,201.23 57.1,53.36 89.65,130.76 89.65,214.04 0,75.26 -26.32,145.47 -74.23,198.36 l -0.93,2.33 c -24.72,98.28 -44.39,215.7 -50.72,297.85 82.02,17.63 158.43,50.49 226.11,95.53 53.73,-62.13 128.24,-162.15 173.38,-251 3.4,-70.25 34.67,-140.14 86.43,-192.7 58.43,-59.33 135.96,-91.66 214.04,-89.61 61.62,-40.7 119.92,-87.5 159.15,-123.12 -235.48,-195.08 -528.78,-322.64 -849.96,-352.91 m -19.81,239.73 -7.53,-6.51 -2.14,-9.7 c -18.24,-82.56 -28.09,-169.44 -30.79,-228.05 -18.41,-1.04 -36.91,-1.74 -55.5,-2.11 v 283.63 l 123.28,123.28 h 48.74 c -3.71,-63.63 -30.95,-121.52 -76.06,-160.54 m -217.67,175.54 101.71,101.72 101.72,-101.72 -101.72,-101.72 z m 81.71,-422.24 c -18.56,0.09 -37.04,0.54 -55.45,1.27 -2.62,58.61 -12.49,146.09 -30.86,229.22 l -2.15,9.7 -7.52,6.51 c -45.1,39.04 -72.32,96.91 -76.04,160.54 h 48.74 l 123.28,-123.28 z m -1000.54,368.16 c 39.92,35.14 100.37,81.93 164.08,122.29 78.17,-3.58 156.17,27.24 215.74,85.45 52.93,51.69 84.58,118.14 89.78,188.02 l 4.1,6.15 c 45.87,88.29 116.67,180.92 173.9,243.17 73.37,-47.91 156.76,-81.6 246.33,-97.27 -5.66,-81.93 -22.63,-202.56 -52.28,-295.8 -46.87,-52.44 -73.61,-124.16 -73.61,-197.93 0,-83.26 32.55,-160.66 89.63,-214.02 15.73,-74.12 24.51,-150.39 27.22,-203.5 -335.53,26.21 -641.65,158.6 -884.89,363.44 m -85.84,77.85 204.29,199.55 174.35,-2.03 34.05,-34.84 c -48.12,-41.84 -108.55,-62.81 -167.99,-57.79 l -9.91,0.84 -8.45,-5.26 c -72.58,-45.12 -142.32,-99.43 -186.04,-138.57 -13.67,12.44 -27.06,25.19 -40.3,38.1 m -66.26,68.56 c 40.21,42.69 96.76,111.79 144.03,184 l 5.46,8.32 -0.6,9.92 c -3.63,59.53 18.77,119.46 61.69,166.59 l 34.04,-34.87 -2.02,-174.35 -204.6,-199.87 c -12.87,13.23 -25.59,26.6 -38,40.26 m -401.63,923.49 c 51.65,-4.22 119.77,-13.59 186.14,-28.57 52.6,-57.81 129.59,-91.35 212.85,-92.44 1.7,0 3.36,-0.02 5.04,-0.02 77.13,0 141.72,23.44 191.66,69.41 l 1.68,1.51 c 101.24,30.82 234.68,46.38 316.14,49.47 18.11,-90.76 54.92,-174.81 106.14,-248.11 -63.2,-54.57 -159.04,-122.93 -245.93,-166.52 -70.27,-3.13 -140.27,-34.1 -193.06,-85.66 -59.55,-58.19 -92.18,-135.55 -90.47,-213.68 -42.68,-64.02 -91.9,-124.41 -128.15,-163.41 -203.15,241.64 -334.8,545.27 -362.04,878.02 m -5.19,116.78 268.94,-3.51 121.66,-124.87 -0.63,-48.73 c -63.57,4.53 -121.1,32.5 -159.54,78.13 l -6.39,7.61 -9.7,2.29 c -75.66,17.73 -155.05,28.44 -212.91,32.75 -0.81,18.69 -1.27,37.47 -1.43,56.33 m 2.12,96.16 c 58.06,2.71 138.27,11.42 215.01,27.33 l 9.73,2.02 6.61,7.44 c 39.59,44.59 97.94,71.12 161.49,73.96 l -0.63,-48.75 -124.86,-121.67 -269.27,3.5 c 0.34,18.8 0.93,37.53 1.92,56.17 m 418.48,-224.93 124.89,121.68 360.97,-4.7 c 0.57,-15.45 1.53,-30.79 3.12,-45.96 -88.7,-3.85 -225.53,-20.57 -331.11,-53.79 l -6.14,-1.94 -11.73,-10.45 c -37.08,-34.12 -83.36,-51.6 -140.63,-53.51 z m 3.73,286.55 0.63,48.51 c 55.6,-4.1 108.21,-26.56 146.13,-63.21 l 4.8,-4.64 6.32,-2.17 c 103.66,-35.52 238.24,-55.71 326.66,-62.05 -1.42,-15.17 -2.24,-30.54 -2.61,-45.99 l -360.27,4.67 z m 84.84,-144.4 -103.02,-100.39 -100.38,103.02 103.03,100.39 z m -134.22,1014.89 c 34.34,-39.6 77.9,-96.09 115.84,-155.5 -3.21,-78.08 27.91,-156.06 86.34,-215.39 51.76,-52.56 121.15,-84.89 191.35,-89.37 90.84,-47.9 192.86,-127.06 253.62,-182 -51.3,-74.52 -87.6,-160.03 -104.84,-252.21 -81.58,5.59 -211.05,24.47 -309.54,57.19 -51.84,47.55 -123.2,75.23 -196.96,76.18 -83.38,1.36 -161.08,-30.44 -215.19,-86.83 -67.66,-13.45 -137.03,-21.05 -189,-23.86 30.36,330.93 164,632.38 368.38,871.79 m 78.79,85.74 192.01,-194.96 -1.33,-174.34 -34.73,-34.2 c -42.01,47.94 -63.23,108.28 -58.47,167.73 l 0.81,9.91 -5.29,8.43 c -42.54,67.8 -93.14,133.1 -131.67,176.9 12.65,13.74 25.53,27.26 38.67,40.53 m 69.6,66.12 c 43.22,-39.2 107.73,-90.79 174.87,-134.36 l 8.34,-5.42 9.92,0.65 c 59.5,3.8 119.53,-18.29 166.83,-61.02 l -34.71,-34.2 -174.34,1.33 -192.01,194.98 c 13.47,12.93 27.19,25.59 41.1,38.04 m 919.59,394.24 c -3.45,-51.95 -12.01,-121.26 -26.34,-188.8 -57.09,-53.36 -89.63,-130.76 -89.63,-214.03 0,-73.77 26.74,-145.49 73.61,-197.94 31.46,-98.91 48.62,-228.58 53.15,-310.23 -91.94,-15.95 -177.46,-50.85 -252.28,-100.69 -54.18,61.81 -132,165.39 -178.46,257.14 l -0.65,11.29 c -1.55,67.37 -27.11,121.42 -85.39,180.62 -58.45,59.35 -136.09,91.69 -214.07,89.61 -58.85,38.88 -114.69,83.33 -153.76,118.28 241.34,199.8 543.34,328.75 873.82,354.75 m 20.55,-227.3 7.52,6.51 2.15,9.71 c 16.89,76.47 26.6,156.6 30.09,214.58 18.66,0.75 37.39,1.22 56.22,1.31 v -269.35 l -123.28,-123.29 h -48.74 c 3.72,63.63 30.94,121.51 76.04,160.53 m 115.98,-73.82 101.72,-101.71 -101.72,-101.71 -101.71,101.71 z m 20,305.61 c 18.84,-0.39 37.61,-1.11 56.3,-2.16 3.55,-57.91 13.22,-137.49 29.99,-213.4 l 2.14,-9.71 7.53,-6.51 c 45.11,-39.02 72.35,-96.9 76.06,-160.54 h -48.74 l -123.28,123.28 z M 3921.5,4034.7 c -39.81,-34.44 -97.33,-78.57 -157.93,-116.93 -77.98,3.57 -156.15,-27.26 -215.73,-85.45 -52.76,-51.55 -85.37,-120.8 -90.14,-190.98 -47.25,-88.73 -124.54,-188.14 -179.56,-249.09 -75.79,57.43 -164.28,98.88 -260.46,119.38 4.14,81.57 21.48,214.87 53.7,315.79 l 7.51,8.62 c 46.14,49.05 65.83,105.45 65.83,188.45 0,83.28 -32.55,160.68 -89.65,214.05 -14.13,66.55 -22.62,134.81 -26.17,186.54 340.96,-32.35 650.4,-174.4 892.6,-390.38 m 83.85,-80.47 -196.12,-191.6 -174.33,2.04 -34.06,34.87 c 48.13,41.81 108.64,62.8 167.96,57.78 l 9.92,-0.84 8.44,5.25 c 68.59,42.65 134.67,93.51 178.63,131.99 13.42,-12.93 26.6,-26.1 39.56,-39.49 m 27.47,-29.09 c 12.67,-13.77 25.1,-27.76 37.26,-41.97 -39.29,-43.06 -90.77,-106.97 -134.34,-173.51 l -5.45,-8.32 0.61,-9.93 c 3.61,-59.53 -18.76,-119.46 -61.69,-166.59 l -34.06,34.87 2.04,174.34 z M 3611.4,3569.37 3357.5,3321.33 c -10.7,11.19 -21.65,22.13 -33.1,32.55 59.34,65.92 140.14,170.59 189.5,265.42 l 3.08,5.92 0.28,6.67 c 2.2,52.7 24.83,105.23 62.26,146.53 l 33.92,-34.72 z m 40.13,11.25 1.68,143.83 143.85,-1.68 -1.69,-143.83 z m 162.16,-41.91 33.91,-34.71 c -42.1,-36.42 -94.96,-57.74 -147.41,-58.61 l -5.66,-0.09 -9.54,-3.99 c -101.02,-49.52 -207.55,-129.9 -272.02,-186.04 -9.14,12.45 -18.71,24.56 -28.68,36.33 l 255.06,249.16 z m -901.47,-13.32 v 360.81 l 123.28,123.29 h 48.93 c -2.08,-58.89 -16.86,-98.08 -49.58,-132.69 l -16.72,-19.16 -1.89,-5.76 c -34.62,-105.21 -53.13,-241.86 -58.12,-330.47 -15.17,1.8 -30.44,3.23 -45.9,3.98 m -143.85,325.96 -2.07,6.35 -4.59,4.86 c -36.15,38.4 -57.93,91.29 -61.29,146.93 h 48.52 l 123.28,-123.29 v -360.17 c -15.48,-0.18 -30.82,-0.94 -46.04,-2.17 -5.18,88.5 -23.63,223.35 -57.81,327.49 m -587.31,-248.34 1.35,174.35 34.86,34.33 c 39.87,-43.46 56.86,-81.79 57.84,-129.45 l 1.45,-25.22 2.71,-5.48 c 48,-96.92 128.05,-204.53 186.38,-271.59 -12.04,-9.7 -23.74,-19.8 -35.05,-30.31 z m -183.75,13.13 1.11,143.84 143.85,-1.1 -1.11,-143.85 z m 155.27,-41.19 249.55,-253.42 c -10.67,-11.16 -21.06,-22.61 -30.93,-34.49 -66.03,59.22 -172.14,140.72 -268.15,190.21 l -5.96,3.06 -6.67,0.26 c -52.7,1.97 -105.32,24.38 -146.76,61.66 l 34.57,34.04 z m 35.37,-1438 246.06,240.38 c 11.68,-10.69 23.84,-20.84 36.25,-30.67 -58.9,-65.06 -130.02,-158.89 -177.02,-248.67 l -10.99,-14.86 -0.37,-9.22 c -2.1,-52.42 -24.64,-104.77 -62.05,-146.02 l -33.9,34.73 z m -40.12,-11.25 -1.68,-143.84 -143.85,1.68 1.68,143.84 z m -162.17,41.9 -33.9,34.71 c 42.17,36.46 95.22,57.85 147.94,58.82 l 6.69,0.12 5.99,2.95 c 91.48,44.92 193.59,117.21 261.78,175.59 10.01,-11.9 20.43,-23.36 31.25,-34.52 L 2160,2165.57 Z m 886.56,36.62 v -345.59 l -123.28,-123.28 h -48.52 c 3.36,55.65 25.15,108.54 61.29,146.92 l 4.59,4.88 2.07,6.35 c 32.36,98.57 50.6,224.68 56.86,312.95 15.52,-1.27 31.19,-2.05 46.99,-2.23 m 139.66,-299.88 7.18,-18.48 3.88,-4.1 c 36.02,-38.13 57.72,-90.84 61.09,-146.41 h -48.53 l -123.28,123.28 v 346.22 c 15.91,0.78 31.63,2.26 47.22,4.16 7.02,-86.14 26.93,-203.72 52.44,-304.67 m -132.16,359.68 c -17.52,0 -34.83,0.92 -51.98,2.39 0,0.43 0.02,0.92 0.02,1.33 h -14.14 c -300.45,33.02 -535.01,288.28 -535.01,597.38 0,331.45 269.67,601.1 601.11,601.1 331.44,0 601.11,-269.65 601.11,-601.1 0,-331.45 -269.67,-601.1 -601.11,-601.1 m 693.67,-131.64 -1.33,-174.33 -34.57,-34.04 c -36.65,42.01 -58.25,94.96 -59.43,147.71 l -0.14,6.68 -2.98,5.98 c -46.75,94.2 -123.72,198.45 -181.47,265.66 12.16,9.79 24,20 35.44,30.61 z m 183.74,-13.1 -1.09,-143.83 -143.84,1.07 1.09,143.85 z m -155.25,41.19 -244.53,248.3 c 10.69,11.17 21.09,22.62 30.98,34.51 61.3,-55.64 158.78,-134.26 255.1,-183.81 l 3.94,-2.03 12.84,-2.34 4.35,-0.47 c 52.4,-1.89 104.84,-24.24 146.25,-61.46 l -34.57,-34.05 z m 330.59,678.02 103.03,100.39 100.39,-103.02 -103.03,-100.39 z m -393.09,-14.89 356.26,-4.64 121.68,-124.88 -0.63,-48.51 c -55.53,4.1 -107.94,26.46 -145.61,62.97 l -5.22,5.07 -6.98,2.11 c -7.8,2.37 -174.66,52.31 -323.97,62.35 1.98,15.03 3.52,30.2 4.47,45.53 m -0.23,86.24 c 88.58,4.35 220.8,21.17 323.52,53.41 l 6.37,2 4.92,4.52 c 38.86,35.65 92.05,56.72 147.72,59.38 l -0.64,-48.52 -124.87,-121.67 -355.39,4.63 c 0,0.52 0.05,1.01 0.05,1.53 0,15.04 -0.69,29.93 -1.68,44.72 m 904.2,58.24 c -52.37,3.96 -123.65,13.49 -193.03,29.17 -52.62,57.78 -129.6,91.32 -212.85,92.4 -73.67,1.08 -145.82,-24.86 -198.89,-71.04 -97.39,-29.57 -224.2,-45.05 -306.11,-48.91 -13.54,84.84 -43.26,164.34 -85.93,235.23 62.12,54.92 167.21,133.9 261.11,180.65 71.07,2.85 139.42,33.06 193.09,85.5 59.57,58.2 92.19,135.57 90.48,213.7 38.55,57.85 82.53,112.79 117.4,151.63 191.66,-241.98 313.44,-541.66 334.73,-868.33 M 2879.72,4492.23 c -897.2,0 -1627.1,-729.92 -1627.1,-1627.11 0,-897.19 729.9,-1627.09 1627.1,-1627.09 897.18,0 1627.1,729.9 1627.1,1627.09 0,897.19 -729.92,1627.11 -1627.1,1627.11 m 0,-3314.34 c -930.34,0 -1687.23,756.88 -1687.23,1687.23 0,930.34 756.89,1687.23 1687.23,1687.23 930.34,0 1687.23,-756.89 1687.23,-1687.23 0,-930.35 -756.89,-1687.23 -1687.23,-1687.23 m 0,3407.47 c -948.54,0 -1720.24,-771.7 -1720.24,-1720.24 0,-948.54 771.7,-1720.24 1720.24,-1720.24 948.54,0 1720.25,771.7 1720.25,1720.24 0,948.54 -771.71,1720.24 -1720.25,1720.24 m 0,-2010.87 c -36.82,0 -72.03,6.96 -104.5,19.5 10.04,-0.92 19.62,-1.39 28.68,-1.39 75.25,0 117.18,29.86 138.47,53.3 49.51,54.47 47.76,130.86 25.17,178.79 -16.16,34.27 -43.28,55.77 -74.19,59.79 -15.43,19.16 -9.88,45.75 -6.42,57.19 11.77,38.67 50.04,80.37 100.41,85.29 62.91,6.14 127.66,-46.02 182.63,-146.81 0.24,-4.99 0.37,-9.99 0.37,-15.03 0,-160.26 -130.37,-290.63 -290.62,-290.63 m -290.63,290.63 c 0,83.11 35.11,158.11 91.22,211.14 -48.29,-103.77 -25.89,-170.27 -4.71,-203.71 32.63,-51.57 91.62,-75.26 141.54,-75.26 8.49,0 16.75,0.7 24.53,2.04 28.75,4.98 51.59,18.67 65.85,38.11 12.57,-8.65 20.33,-22.38 23.84,-29.81 17.63,-37.43 16.92,-95.77 -18.6,-134.84 -43.59,-48 -127.52,-53.22 -236.49,-14.96 -53.76,52.76 -87.18,126.18 -87.18,207.29 m 167.79,263.3 c 37.33,17.5 78.95,27.33 122.84,27.33 114.84,0 214.3,-66.95 261.48,-163.88 -63.42,70.13 -122.85,78.3 -157.74,74.9 -70.99,-6.93 -119.63,-63.67 -134.78,-113.46 -11.99,-39.36 -4.53,-76.06 19.48,-100.28 -10.46,-8.82 -23.99,-12.66 -33.32,-14.27 -40.51,-7.06 -96.65,9.67 -125.45,55.17 -35.42,55.95 -18.45,139.11 47.49,234.49 m 122.84,67.33 c -182.31,0 -330.63,-148.32 -330.63,-330.63 0,-182.31 148.32,-330.63 330.63,-330.63 182.3,0 330.62,148.32 330.62,330.63 0,182.31 -148.32,330.63 -330.62,330.63 m 0,-757.94 c -235.61,0 -427.29,191.68 -427.29,427.31 0,235.61 191.68,427.3 427.29,427.3 235.61,0 427.29,-191.69 427.29,-427.3 0,-235.63 -191.68,-427.31 -427.29,-427.31 m 0,894.61 c -257.66,0 -467.29,-209.63 -467.29,-467.3 0,-257.68 209.63,-467.31 467.29,-467.31 257.66,0 467.29,209.63 467.29,467.31 0,257.67 -209.63,467.3 -467.29,467.3 m -2598.282,-466.07 101.152,-1.32 -1.098,-83.68 c -33.644,-24.36 -77.863,-38.09 -123.347,-37.21 v 0 c -31.84,0.41 -61.641,7.44 -87.469,19.32 z m -143.711,125.16 106.98,-104.68 -109.684,-101.89 c -34.277,26.45 -55.5347,63.37 -55.0191,104.03 0.5313,40.67 22.7621,77.01 57.7231,102.54 m 135.961,-105.06 z m -99.833,125.69 c 25.309,10.83 54.27,17.01 85,17.01 0.989,0 1.989,-0.02 2.993,-0.02 45.515,-0.6 89.347,-15.19 122.336,-40.39 l -1.079,-83.71 -101.152,1.32 z m 4853.795,-167.89 -90.77,93.18 c -0.61,17.5 -1.44,34.96 -2.49,52.36 104.74,-54.08 272.55,-84.04 378.18,-92.93 l -0.73,-56.3 z m -95.05,-132.08 94.52,92.08 284.19,-3.69 -0.74,-57.38 c -106.55,-6.19 -276.64,-32.1 -382.57,-84.14 1.77,17.64 3.29,35.36 4.6,53.13 m -44.81,12.17 -100.39,103.03 103.03,100.39 100.4,-103.02 z m -278.88,-1643.42 70.97,-72.07 2.45,-151.19 c -27.02,10.578 -52.54,27.481 -74.49,49.758 -31.94,32.434 -52.84,73.621 -58.57,114.772 z m -362.54,246.17 121.01,-0.94 199.43,-202.5 -40.12,-39.49 c -78.07,68.77 -212.26,166.64 -322.65,206.29 14.29,12.03 28.38,24.24 42.33,36.64 m 110.71,183.01 -1.1,-143.83 -143.85,1.08 1.09,143.84 z m 279.12,-318.11 -40.9,-40.25 -199.42,202.5 0.93,120.96 c 12.86,14.04 25.58,28.2 38.05,42.56 37.95,-110.96 133.78,-246.65 201.34,-325.77 m -227.56,3128.25 -1.68,-143.83 -143.83,1.68 1.68,143.83 z m 215.51,238.47 -203.32,-198.61 -129.07,1.51 c -12.75,12.03 -25.66,23.89 -38.7,35.6 112.05,36.24 251.12,133.5 331.73,201.78 z m 115.26,112.62 -72.34,-70.69 -58.52,59.88 c 6.54,41.01 28.24,81.8 60.8,113.6 22.37,21.86 48.21,38.26 75.44,48.32 z m -258.35,-514.22 c -11.11,13.75 -22.39,27.35 -33.84,40.81 l 1.56,133.57 203.31,198.61 40.11,-41.05 c -71.2,-80.19 -173.61,-219.89 -211.14,-331.94 m 437.48,487.44 c -10.53,-26.4 -27.26,-52.04 -50.04,-74.29 -32.56,-31.81 -73.84,-52.54 -114.99,-58.1 l -58.5,59.87 72.36,70.68 z m -20.87,153.43 c 28.41,-29.09 38.47,-70.5 31.87,-113.28 l -149.69,-1.83 5.32,149.46 c 2.44,0.32 4.87,0.77 7.32,0.99 42.02,3.6 79.38,-8.93 105.18,-35.34 m -2025.45,665.17 v -101.16 h -83.7 c -24.78,33.32 -38.8,77.34 -38.8,122.86 0,31.85 6.65,61.74 18.18,87.72 z m 123.7,-101.16 h -83.7 v 101.16 l 104.31,109.42 c 11.55,-25.98 18.19,-55.87 18.19,-87.72 0,-45.52 -14.02,-89.53 -38.8,-122.86 m -83.7,-344.22 v 284.22 h 57.4 c 7.68,-108.13 36.6,-281.59 91.67,-386.41 -16.85,1.48 -33.75,2.75 -50.7,3.82 z m -136.71,-96.71 c -16.75,-0.84 -33.43,-1.91 -50.07,-3.14 54.31,105.04 82.85,276.73 90.48,384.07 h 56.3 v -284.21 z m 116.71,60.14 101.72,-101.71 -101.72,-101.71 -101.71,101.71 z m 0,683.65 c 40.66,0 77.31,-21.74 103.3,-56.37 l -103.3,-108.34 -103.29,108.35 c 25.98,34.62 62.62,56.36 103.29,56.36 M 1390.7,1386.08 l 1.69,143.82 143.84,-1.68 -1.68,-143.82 z m -215.49,-238.46 203.32,198.59 114.66,-1.35 c 14.73,-13.43 29.65,-26.64 44.75,-39.64 -110.39,-38.4 -244.18,-132.21 -322.6,-198.68 z m -45.2,-215.409 c -22.77,-22.27 -48.79,-38.402 -75.43,-48.301 l 5.36,151.09 72.35,70.67 58.51,-59.87 c -6.52,-41.01 -28.22,-81.792 -60.79,-113.589 z m -110.5,91.249 -5.33,-149.608 c -42.926,-5.614 -84.082,5.41 -112.504,34.507 -25.801,26.411 -37.481,64.039 -32.871,105.981 0.273,2.44 0.781,4.86 1.16,7.28 z m 84.85,110.84 -72.37,-70.7 -151.193,-1.82 c 10.695,26.97 27.699,52.42 50.066,74.28 32.567,31.81 73.847,52.54 114.987,58.12 z m 208.63,397.11 c 12.77,-14.98 25.71,-29.81 38.89,-44.42 l -1.3,-112.16 -203.3,-198.62 -39.36,40.28 c 67.65,76.17 163.47,206.05 205.07,314.92 m -266.94,3167.09 71,-72.08 -59.64,-58.73 c -41.04,6.36 -81.922,27.89 -113.863,60.32 -22.34,22.69 -38.582,48.65 -48.59,75.25 z m -11.69,40.39 -149.626,4.72 c -5.781,42.9 5.071,84.1 34.039,112.64 23.473,23.11 55.067,34.31 88.957,34.31 7.96,0 16.06,-0.85 24.19,-2.07 z m 111.18,-84.4 -70.98,72.08 -2.46,151 c 26.44,-10.42 52.17,-26.9 74.51,-49.58 31.93,-32.43 52.83,-73.63 58.57,-114.76 z m 213.02,-273.31 -1,-131.58 c -11.7,-12.85 -23.22,-25.84 -34.6,-38.98 -36.01,112.36 -134.79,252.58 -203.94,333.55 l 40.13,39.51 z m 183.76,-13.12 -1.09,-143.85 -143.85,1.11 1.11,143.84 z m -23.52,40.18 -131.73,1 -199.43,202.5 40.9,40.29 c 79.95,-70.43 218.75,-171.42 330.59,-209.09 -13.59,-11.39 -27.04,-22.97 -40.33,-34.7 M 763.594,2880.09 866.637,2980.47 967.016,2877.45 863.977,2777.05 Z m -320.489,24.16 0.735,56.29 c 107.488,6.23 279.656,32.58 385.355,85.54 -1.453,-16.56 -2.703,-33.2 -3.75,-49.88 l -98.148,-95.64 z m 283.672,-43.69 96.996,-99.56 c 0.852,-16.99 1.918,-33.91 3.196,-50.8 -104.114,56.42 -277.125,87.58 -385.133,96.66 l 0.742,57.39 z M 3024,891.84 2892.22,1023.63 2758.94,890.352 C 2306.59,917.738 1894.79,1097.74 1574.5,1379.47 l 2.19,188.29 -191.57,2.24 c -279.91,322.6 -457.339,736.35 -481.175,1190.14 l 119.625,116.57 -117.879,120.97 c 30.247,454.75 214.739,867.92 501.599,1187.55 l 173.63,-1.32 1.33,173.73 c 322.44,280.66 736.32,458.79 1190.42,483.12 l 119.55,-119.56 118.05,118.07 c 467.45,-30.61 891.07,-224.23 1214.46,-524.5 l -2.06,-176.21 171.73,-2.01 c 272.22,-323.78 442.73,-735.7 461.93,-1186.17 L 4730.84,2828.11 4851.7,2704.06 C 4815.99,2262.95 4634.95,1862.31 4356.66,1550.1 l -183.12,1.41 -1.41,-183.33 C 3859.29,1097.72 3461.09,923.5 3024,891.84 M 2912.22,281.68 v 101.172 h 83.7 c 24.78,-33.34 38.8,-77.344 38.8,-122.852 0,-31.852 -6.65,-61.762 -18.19,-87.73 z m -123.7,101.172 h 83.7 V 281.699 L 2767.9,172.27 c -11.53,25.968 -18.18,55.878 -18.18,87.73 0,45.508 14.02,89.531 38.8,122.852 m 2.15,425.75 81.55,-81.532 V 442.852 h -56.3 c -7.28,102.347 -33.57,263.187 -83.06,369.007 19.2,-1.347 38.48,-2.429 57.81,-3.257 m 204.33,1.25 c 19.64,1.089 39.19,2.5 58.68,4.136 -50.14,-105.789 -76.74,-268.09 -84.06,-371.136 h -57.4 V 727.07 Z m -102.78,-46.223 -101.71,101.723 101.71,101.718 101.72,-101.718 z m 0,-683.629 c -40.67,0 -77.31,21.738 -103.29,56.371 l 103.29,108.34 103.3,-108.34 C 2969.53,101.738 2932.88,80 2892.22,80 m 1816.17,956.9 -70.98,72.07 59.65,58.75 c 41.03,-6.35 81.9,-27.89 113.84,-60.32 22.34,-22.69 38.58,-48.65 48.59,-75.25 z m 21.42,-191.041 c -2.44,0.243 -4.86,0.743 -7.29,1.11 l -2.42,149.539 149.62,-4.707 c 5.78,-42.891 -5.08,-84.102 -34.06,-112.641 -26.3,-25.941 -63.94,-37.691 -105.85,-33.301 m 892.77,1871.861 c -1.92,-1.55 -4,-2.89 -5.98,-4.34 l -106.89,104.6 109.58,101.78 c 1.95,-1.49 3.98,-2.9 5.86,-4.48 32.24,-27.2 49.73,-62.51 49.25,-99.43 -0.47,-36.94 -18.88,-71.79 -51.82,-98.13 m -251.27,82.05 101.16,-1.31 108.12,-105.8 c -26.71,-11.56 -56.78,-17.58 -88.02,-16.96 -45.51,0.59 -89.35,15.18 -122.35,40.38 z m 124.96,160.9 c 31.28,-0.41 61.14,-7.13 87.5,-19.3 l -110.8,-102.91 -101.13,1.31 1.08,83.71 c 33.64,24.34 78.01,37.8 123.35,37.19 m 180.45,15.76 h 0.01 c -48.07,40.55 -111.79,63.35 -179.38,64.23 -70.09,0.91 -135.69,-21.51 -185.62,-63.52 -115.69,10.63 -281.63,50.31 -364.31,98.99 -37.53,370.26 -174.66,723.92 -397,1023.95 26.07,93.15 121.72,244.58 197.31,331.12 64.38,4.34 127.02,33.32 176.67,81.83 102.55,100.18 116.23,253.08 30.49,340.85 -42.79,43.82 -102.82,64.81 -169.28,59.16 -62.65,-5.42 -123.79,-34.43 -172.17,-81.68 -50.06,-48.91 -80.59,-111.46 -86.08,-176.25 -80.13,-66.83 -227.03,-164.04 -325.23,-187.74 -303.32,250.79 -668.31,409.38 -1056.77,459.17 -50.58,85.89 -87.13,267.11 -95.57,374.74 41.89,49.08 64.93,114.14 64.93,183.57 0,143.37 -99.82,260 -222.5,260 -122.68,0 -222.5,-116.63 -222.5,-260 0,-69.98 23.41,-135.52 65.91,-184.72 -8.4,-105.02 -45,-283.25 -95.84,-370.3 -374.15,-43.21 -729.42,-188.06 -1028.76,-419.42 -97.84,25.7 -244.76,127.66 -324.87,197.37 -4.59,64.35 -33.84,126.88 -82.56,176.34 -100.57,102.15 -253.545,115.22 -340.955,29.13 -87.418,-86.09 -76.688,-239.23 23.914,-341.37 49.086,-49.85 111.757,-80.13 176.581,-85.37 66.06,-78.67 166.8,-229.33 191.35,-327.25 -237.17,-297.23 -387.767,-652.08 -436.06,-1027.51 -86.434,-49.65 -265.664,-83.91 -371.66,-90.98 -48.665,43.17 -113.895,67.43 -183.836,68.34 l -4.047,0.04 C 117.703,3109.15 1.58594,3010.85 0.015625,2890.01 -1.57422,2767.33 113.746,2666.02 257.258,2664.14 l 3.949,-0.02 c 67.816,0 131.719,22.21 180.277,62.56 102.93,-9.57 285.582,-49.69 373.621,-101.93 44.04,-380.47 192.795,-740.69 430.715,-1042.93 -26.56,-88.05 -114.62,-217.81 -192.63,-306.6 -64.924,-3.95 -128.186,-33.03 -178.225,-81.94 -48.387,-47.26 -78.817,-107.69 -85.68,-170.19 -7.269,-66.192 12.32,-126.781 55.168,-170.649 37.692,-38.57 90.402,-59.8 148.422,-59.8 69.125,0 139.475,30 193.045,82.32 49.67,48.519 80.11,110.469 85.95,174.749 77.3,64.8 218.46,162.6 317.03,187.5 306.77,-243.769 673.06,-394.999 1060.6,-437.89 50.12,-88.211 78.48,-255.41 86.15,-354.59 -42.52,-49.199 -65.93,-114.769 -65.93,-184.73 0,-143.379 99.82,-260 222.5,-260 122.68,0 222.5,116.621 222.5,260 0,69.418 -23.04,134.469 -64.93,183.578 7.71,101.344 36.65,271.621 88.16,359.082 369.16,45.969 719.59,191.129 1014.57,420.25 97.66,-25.29 238.45,-126.54 315.66,-193.73 4.24,-64.918 33.56,-128.051 82.66,-177.891 47.47,-48.199 108.03,-78.379 170.57,-85 65.74,-6.91 127.23,13.379 170.4,55.879 87.4,86.07 76.68,239.222 -23.9,341.372 -48.74,49.47 -110.81,79.66 -175.09,85.23 -66.37,78.5 -166.01,221.41 -189.71,319.84 232.11,290.06 382.1,636.12 434.24,1001.96 90.03,50.92 267.94,85.58 371.46,92.46 48.52,-42.54 113.29,-66.43 182.82,-67.33 l 3.97,-0.02 c 66.09,0 128.93,21.16 176.94,59.56 51.99,41.6 81.06,98.26 81.86,159.56 0.8,61.32 -26.79,118.72 -77.68,161.63"        
         id="path64"
         inkscape:connector-curvature="0"
          fill="rgba(80,0,20,.01)" /></g></g></svg>