<?xml version="1.0" encoding="utf-8"?>

<!DOCTYPE svg PUBLIC "-//W3C//DTD SVG 1.1//EN" "http://www.w3.org/Graphics/SVG/1.1/DTD/svg11.dtd">
<svg version="1.1" id="Layer_1" xmlns="http://www.w3.org/2000/svg" xmlns:xlink="http://www.w3.org/1999/xlink" x="0px" y="0px"
	 viewBox="0 0 1651.1818 1650.4574" enable-background="new 0 0 1651.1818 1650.4574" xml:space="preserve" class="dharma-wheel">
<path fill="rgba(80,0,20,.4)" d="M1625.7445,823.892c-7.9966-8.5363-17.3688-15.962-23.599-26.0004c-4.9823-8.0392-9.7845-16.2582-16.068-23.3771
	c-7.891-9.5413-21.1133-14.7032-33.3202-12.2704c-6.5688,1.2588-11.8578,5.839-15.4224,11.3184
	c-4.5803-2.4011-9.7528-2.9406-14.8302-2.7714c-1.9253-4.0408-5.4266-6.8544-9.9221-7.3516
	c-1.6711-4.4426-5.3628-7.5208-10.1125-8.0179c-1.83-3.2369-4.0618-7.0872-8.2081-7.3834
	c-9.0125-0.4971-18.0565-0.127-27.0688,0.2115c-13.6877-117.0228-60.6113-229.783-133.6091-322.2334
	c6.3149-6.315,12.5454-12.7676,18.7651-19.1989c3.0042-2.8032,2.2638-7.1613,1.83-10.7895
	c3.311-3.5963,3.5437-8.4411,1.8829-12.8414c2.5176-3.6389,2.9301-7.9757,1.5125-12.1223
	c3.5756-3.3109,6.7383-7.1189,8.3462-11.7943c5.511,0.8569,11.403,0.8463,16.4697-1.8194
	c10.1123-5.183,16.1842-16.3745,17.0408-27.4707c0.4548-11.001-2.2529-21.7799-4.8232-32.3788
	c-2.9089-11.6886-2.1265-23.8214-1.957-35.7321c0.5818-3.406-3.7234-3.0676-5.9343-3.0676
	c-11.4453,0.5077-23.1018,0.6664-34.2721-2.2319c-8.9171-2.2637-17.9824-4.3157-27.2274-4.5166
	c-12.0696-0.4761-24.7946,5.5428-30.7924,16.3004c-3.0039,5.2678-3.2896,11.5933-2.0414,17.4323
	c-5.0033,1.4387-9.0442,4.7706-12.5349,8.5046c-4.157-1.4281-8.5046-1.026-11.8789,1.8511
	c-4.4321-1.6396-9.2451-1.5338-13.0635,1.4492c-3.9562-0.952-8.7903-2.0839-11.9636,1.2799
	c-6.1459,6.114-12.1541,12.3762-18.321,18.4691c-92.2072-72.6488-204.6075-119.3396-321.2285-133.0273
	c-0.4124-9.0335,0.7722-18.0882,0.0953-27.1006c-0.4338-4.2206-4.3052-6.537-7.7219-8.2295
	c-0.1059-4.9823-3.512-8.5363-7.9758-10.2077c-0.1376-4.5168-3.0887-7.8171-7.0132-9.647
	c0.0741-5.1514-0.3807-10.3874-2.803-15.0312c5.0245-3.3425,9.4039-8.0496,10.9482-14.0473
	c2.8348-11.1491-1.0895-23.4088-8.8538-31.7125c-8.2825-8.3141-18.6381-14.0157-28.4332-20.2883
	c-9.0653-6.1564-16.015-14.7455-23.8954-22.2135c-1.1635-1.2587-3.1628-0.328-4.1044,0.7298
	c-8.4411,8.2614-16.1522,17.5699-26.4338,23.6416c-7.6057,4.5591-15.1687,9.2768-21.8858,15.0946
	c-9.7845,8.018-15.0946,21.674-12.2278,34.1136c1.3326,6.2091,5.7861,11.0432,10.8423,14.5657
	c-2.0099,4.5168-2.5706,9.4566-2.5071,14.3541c-3.9773,1.7877-6.8015,5.1726-7.2459,9.5941
	c-4.5589,1.7349-7.7746,5.5957-7.8381,10.6202c-3.0357,1.9464-6.4523,4.4426-6.3467,8.494
	c-0.5713,9.0335-0.0635,18.0881-0.2327,27.1427c-116.9595,13.5609-229.73,60.3044-322.1913,133.1331
	c-6.2832-6.1246-12.2914-12.4819-18.5854-18.5536c-3.1204-3.2581-7.8487-2.0838-11.7095-1.1741
	c-3.8293-2.9513-8.642-3.11-13.0638-1.4703c-3.3954-2.8665-7.7113-3.1945-11.8578-1.8935c-3.554-3.6811-7.6478-6.8968-12.577-8.4517
	c3.2472-11.8789-3.8929-24.3397-14.661-29.4593c-14.0368-7.8065-30.6229-3.205-45.2521,0.201
	c-13.0953,3.7128-26.7724,2.0097-40.1535,2.6127c-0.4336,12.0692,0.9943,24.3503-1.6714,36.2715
	c-2.3588,10.0701-5.0454,20.1613-5.3419,30.5593c-0.5498,12.1222,5.4266,24.8262,16.1103,30.9826
	c5.2254,3.0781,11.5403,3.3003,17.3794,2.3059c1.6714,4.6121,4.7495,8.4623,8.3352,11.7521
	c-1.174,4.1147-1.1846,8.5575,1.5764,12.0904c-1.6502,4.4216-1.5234,9.3827,1.9355,12.9367
	c-0.4548,3.5649-1.2799,7.8488,1.6502,10.652c6.262,6.4842,12.4925,13.0002,18.9237,19.3258
	c-73.0085,92.4504-119.9423,205.2212-133.6618,322.244c-9.0653-0.3385-18.1621-0.7404-27.2274-0.2009
	c-4.1255,0.4019-6.2517,4.2417-8.0922,7.4362c-4.8339,0.402-8.3564,3.7023-10.2181,8.0074
	c-4.5062,0.3914-7.8278,3.3532-9.7104,7.3093c-5.1515-0.1798-10.3875,0.3385-14.989,2.8032
	c-2.8136-4.3264-6.4947-8.3143-11.4133-10.1548c-10.4828-4.0724-22.6156-0.9731-31.4376,5.5217
	c-10.0172,8.2613-16.1207,20.0345-23.0595,30.7709c-6.4738,9.8163-16.2054,16.7977-23.5569,25.8841
	c8.2614,8.9171,17.9718,16.6072,24.5406,26.9736c5.8178,9.3508,11.4241,19.019,19.2517,26.8677
	c8.219,7.6795,20.2989,11.4558,31.3529,8.8536c6.0714-1.4174,10.8105-5.8284,14.354-10.7576
	c4.4956,2.0309,9.4145,2.5281,14.2907,2.6444c1.8935,3.8821,5.1833,6.7593,9.6471,7.0554
	c1.6078,4.6331,5.4369,7.7324,10.3979,7.9546c2.0417,2.4118,3.914,5.7121,7.373,6.1035c9.446,0.4231,18.9237,0.55,28.3802,0.4866
	c13.6244,116.9277,60.2832,229.7089,133.1649,322.1489c-6.114,6.241-12.4608,12.2385-18.5748,18.4584
	c-3.1945,3.1945-2.1685,7.8911-1.1213,11.7732c-2.9934,3.808-3.2263,8.621-1.4914,13.0531
	c-2.7821,3.4377-3.311,7.7324-1.8194,11.8789c-3.7234,3.5541-7.045,7.6161-8.5894,12.63
	c-5.236-1.0685-10.8317-1.0895-15.7609,1.2164c-9.8481,4.4004-15.8668,14.735-17.6017,25.059
	c-2.2953,17.9506,6.7065,34.7589,6.6429,52.572c0.3597,6.0187-0.2538,12.0481-0.1903,18.0881
	c-0.0635,1.6924,0.9731,3.7869,2.9933,3.2897c12.006-0.1163,24.2341-0.9625,35.9859,2.0204
	c10.0913,2.4963,20.3309,4.9293,30.7817,4.8552c10.7152-0.402,21.5049-5.6381,27.4813-14.6926
	c3.7552-5.5111,4.3476-12.4713,3.184-18.871c4.6332-1.6713,8.494-4.7494,11.7836-8.3353c4.1361,1.3964,8.4835,1.0366,12.1118-1.5126
	c4.4744,1.7347,9.3824,1.3539,13.0002-2.0099c3.554,0.5607,7.8169,1.2694,10.5779-1.6501
	c6.4947-6.2515,12.9682-12.5135,19.3149-18.9026c92.6622,73.1671,205.7395,120.2069,323.0587,133.7465
	c0.148,8.9595-0.3068,17.9507,0.1904,26.9102c-0.1268,4.1676,3.406,6.7064,6.4102,8.8749
	c-0.0635,5.0668,3.4378,8.6526,7.817,10.5989c0.5924,4.3264,3.3004,7.6796,7.2142,9.5413c-0.0318,4.8658,0.5607,9.7528,2.56,14.259
	c-4.3476,3.1205-8.4623,7.0026-10.1548,12.2385c-3.7764,11.0962-0.1376,23.8743,7.4575,32.527
	c7.3727,7.7959,16.6495,13.4127,25.7675,18.9132c9.4039,5.6697,16.9775,13.7618,24.4667,21.6635
	c1.5338,1.9358,3.8714,2.5916,6.1985,3.0781c8.7056-9.0546,17.189-18.7015,28.1478-25.1542
	c7.8487-4.6436,15.5706-9.6152,22.3403-15.7715c9.0441-8.1768,13.7618-21.4625,10.7473-33.4155
	c-1.4811-6.0612-5.8496-10.8634-10.9905-14.1532c2.4224-4.6331,2.9724-9.8479,2.8562-14.9783
	c3.8503-1.978,6.9813-5.2148,6.9918-9.795c4.5168-1.5232,7.8172-5.1515,8.0605-10.049c3.3319-1.9253,7.4045-4.1783,7.7004-8.494
	c0.5186-8.9595-0.5289-17.9296-0.1586-26.9102c116.949-13.7195,229.6879-60.6111,322.0536-133.6407
	c6.5476,6.5054,13.0532,13.0637,19.8441,19.3046c2.7715,2.5599,6.7382,1.682,10.1124,1.28
	c3.6176,3.406,8.5153,3.6176,13.0109,2.0098c3.5752,2.5281,7.8488,2.8348,11.9528,1.5232
	c3.4275,3.4907,7.2247,6.6852,11.9319,8.3036c-0.9519,5.3737-0.9202,11.1385,1.6184,16.1101
	c5.2678,10.6731,17.1255,16.9564,28.7509,17.4429c10.5461,0.1376,20.8912-2.327,31.0565-4.8552
	c11.625-2.9088,23.7155-2.2002,35.5629-1.9569c1.9038,0.2539,3.681-1.3962,3.3743-3.3214
	c-0.2115-12.0059-0.9204-24.2339,2.0626-35.9858c2.5916-10.5039,5.1833-21.2405,4.6965-32.1356
	c-0.9625-11.001-6.9918-22.1818-17.0938-27.2485c-5.1304-2.6761-11.0962-2.708-16.6389-1.5973
	c-1.5128-5.0033-4.7495-9.0864-8.4305-12.63c1.2587-4.1465,0.973-8.5258-1.9464-11.8895c1.8617-4.4109,1.6078-9.2556-1.4808-13.0214
	c0.9519-3.6493,2.2424-8.0709-0.6771-11.1914c-6.135-6.5371-12.7252-12.651-18.9661-19.0824
	c72.8605-92.4188,119.5616-205.2,133.1223-322.1171c9.3297,0.074,18.67-0.0952,28.0104-0.4549
	c3.6599-0.1375,5.7225-3.5647,7.7747-6.114c4.9609-0.2645,8.7056-3.5118,10.4932-8.0074c4.3899-0.3068,7.6586-3.1733,9.5096-7.0131
	c4.9081-0.1163,9.8479-0.6876,14.4176-2.6339c3.4695,4.8235,8.0287,9.2451,13.9839,10.6837
	c11.953,2.9195,25.1648-1.6184,33.3838-10.6519c5.9554-6.5688,10.8635-13.9733,15.3379-21.5894
	c5.691-9.8374,13.8568-17.8977,22.15-25.535C1624.1685,828.6732,1626.6649,826.8221,1625.7445,823.892z M431.1442,540.384
	c2.2424,1.9359,4.2206,4.3794,7.0236,5.5428c2.8983,0.7829,5.9025-0.1374,8.7797-0.6451c3.7128,1.9673,7.8699,1.8405,11.7204,0.3596
	c2.9724,1.7666,6.3782,2.3167,9.816,2.1578c6.9709,7.3305,12.6935,15.7928,17.2526,24.8368
	c4.7706,8.9807,8.1134,18.7863,14.0157,27.1641c3.4166,4.9927,8.8856,8.9594,15.1052,9.1603
	c3.8714,0.2856,7.6689-0.7298,11.4983-1.0154c2.6762,0.9943,5.236,2.3271,8.1449,2.5916c0.7192,0.55,1.4493,1.1213,2.1791,1.6819
	c-1.576,2.5068-3.8081,4.9822-3.6599,8.1555c-0.5925,7.4468,7.8169,14.3541,14.9781,11.5086
	c1.1846,0.0529,3.1416-1.5338,3.7234,0.2328c-0.8675,6.516-2.708,13.7089,0.7615,19.8018
	c4.5803,8.0603,13.6559,11.7097,21.5682,15.6341c14.1215,6.3361,28.2325,13.6031,39.0536,24.9321
	c-0.233,3.6176,0.5815,7.1295,2.5915,10.1653c-0.8145,3.5225-2.3059,7.8806,0.5607,10.8952
	c4.2735,4.8447,9.1286,9.1605,13.6348,13.7935c-4.485,9.4037-8.6315,18.9872-11.8789,28.8881
	c-6.2197-0.2856-12.4714-0.7404-18.6804-0.1375c-4.0832,0.2856-6.1035,4.21-7.9122,7.3411
	c-3.7552,0.5923-6.8862,2.6867-9.2344,5.6063c-11.6569-0.0635-23.261-2.2531-34.2725-6.0717
	c-9.6363-3.1205-18.9449-7.5632-29.0574-9.0018c-6.2093-1.0049-12.8096,1.2058-17.1784,5.7226
	c-2.7397,2.8348-4.7177,6.2726-7.0554,9.4249c-1.8829-3.184-3.311-7.2459-7.1295-8.5576c-4.39-1.6183-10.0596-1.301-13.4444,2.2426
	c-2.5706,2.4752-2.7186,6.262-3.6707,9.4778c-3.2472-1.7983-6.2726-4.0302-10.0384-4.5696
	c-3.0781-5.0034-6.6217-10.2817-12.3549-12.4502c-9.2662-3.7763-19.1249,0.6453-28.0102,3.5118
	c-13.6983,5.363-27.9784,9.5942-42.7451,10.3452c-2.2215-2.7291-5.0351-4.8765-8.5047-5.6698
	c-1.5337-3.808-4.2417-6.9285-8.3461-7.9122c-1.8932-2.2002-3.5646-5.0245-6.5053-5.8601
	c-2.8666-0.7193-5.8602-0.5289-8.7797-0.6558C356.8558,673.9719,386.6748,601.9366,431.1442,540.384z M534.3945,1040.3997
	c-3.9982-0.3173-7.2139,3.385-11.2123,2.084c-4.7495-0.8887-9.8798-1.3857-14.3648,0.8143
	c-7.8169,3.5331-11.9213,11.6675-15.5388,18.9979c-6.5267,14.4282-13.4656,29.068-24.6571,40.566
	c-3.406-0.2432-6.7909,0.3069-9.721,2.1262c-3.8611-1.5444-8.0393-1.703-11.7839,0.2644c-2.6654-0.2009-5.5216-0.9414-8.0602,0.2645
	c-2.8139,1.4069-4.8765,3.8503-7.1506,5.9447c-44.575-61.3833-74.6904-133.2387-86.622-208.1829
	c2.8136-0.2539,5.7437-0.0423,8.4623-0.9838c2.9722-1.3222,4.4636-4.4109,6.1879-6.9603c4.1255-1.0048,6.9603-4.1677,8.4729-8.0074
	c3.459-0.6558,6.2408-2.7184,8.42-5.3947c12.5349,0.2538,24.7944,3.2686,36.4724,7.6795c9.6895,3.258,19.4317,8.0392,29.9354,7.2247
	c7.8487-0.8145,13.4762-7.1296,17.041-13.6878c2.7501-0.3914,5.4475-1.2164,7.2563-3.4907c1.0154-0.1798,2.0205-0.3384,3.0466-0.476
	c0.7933,2.9935,1.0472,6.4419,3.3531,8.7796c3.5013,3.5753,9.2344,3.9879,13.73,2.2531c3.607-1.428,5.0668-5.3207,6.9603-8.3777
	c3.7655,4.9399,7.013,10.8741,12.9897,13.4657c7.8381,3.5964,16.6178,0.7299,24.3185-1.7983
	c15.8351-5.6063,32.0931-12.3021,49.1977-11.2654c2.8771,2.1791,5.6802,4.6014,9.4459,5.0563
	c1.7032,3.0146,3.5858,6.8862,7.489,7.2881c6.6324,0.476,13.2859,0.0423,19.9182,0.1904
	c3.459,9.7104,7.2672,19.3046,11.9001,28.5284c-4.4744,4.686-9.5413,8.8326-13.508,13.9734
	c-2.2635,3.0887-0.9836,6.9708,0.0106,10.2922c-2.3165,3.0042-2.5809,6.7487-3.2051,10.3452
	c-9.8057,11.001-23.1972,17.993-36.4301,24.0753c-8.7267,4.3263-18.8816,7.9334-24.1914,16.6918
	c-3.639,6.0823-1.8511,13.2964-0.8781,19.8441c-0.931,2.0309-3.4696-0.0529-5.0563,0.1375
	c-6.0294-1.7242-12.0481,3.4484-13.455,9.0652c-1.0578,4.1571,1.3328,7.8488,3.5435,11.1384
	C536.1295,1039.2467,534.9764,1040.0189,534.3945,1040.3997z M772.1109,1183.8884c-2.7501,1.4386-3.2896,4.3158-3.5328,7.1189
	c-6.442,3.7129-12.9791,9.1182-13.8783,17.0093c-0.9519,10.3662,3.7657,20.0768,7.0132,29.6709
	c4.4532,11.8365,7.5313,24.2656,8.0284,36.959c-2.8242,2.0734-4.8339,4.9504-5.5534,8.42
	c-3.9984,1.4597-7.0447,4.4745-8.0178,8.6844c-2.3906,1.4069-5.2363,2.6127-6.5585,5.236c-1.4597,2.8561-1.0469,6.167-1.3011,9.2662
	c-74.5739-11.9106-146.0696-41.7191-207.2838-85.9028c1.9993-2.2954,4.5062-4.3158,5.6063-7.2035
	c0.6136-2.8772-0.1903-5.7544-0.698-8.5575c1.8511-3.7234,1.9567-7.817,0.4971-11.6886c1.6396-3.0359,2.1367-6.4102,2.0308-9.8057
	c9.4036-9.2345,20.9655-15.7927,32.8549-21.2404c8.5679-4.2841,18.3313-7.5209,24.5512-15.2109
	c4.2947-5.2361,4.2629-12.3656,3.0466-18.6699c-1.2484-3.8927,2.2529-7.0237,2.2424-10.8635
	c0.3912-0.5605,1.1531-1.6925,1.5337-2.2637c2.6127,1.5021,5.141,3.7551,8.3567,3.6917c5.0666,0.3809,9.5834-3.4377,11.5192-7.8805
	c1.5232-3.7023-0.2327-7.542-0.6663-11.2654c7.8699,2.0098,17.2523,3.2792,23.8952-2.5281
	c7.9864-7.3199,11.4136-17.9824,16.163-27.3967c5.3419-11.403,12.1116-22.2557,21.1769-31.0778
	c3.6705,0.3174,7.2459-0.6029,10.3028-2.6655c3.5331,0.9519,7.9651,2.2953,10.9694-0.6348
	c4.7495-4.2734,9.0227-9.0652,13.6666-13.4868c9.298,4.5379,18.8707,8.5998,28.7188,11.8261
	c0.1059,6.6111-0.2432,13.254,0.1483,19.8757c0.1903,3.9879,4.2838,5.8179,7.2036,7.7007c0.6557,3.6071,2.5598,6.7275,5.5216,8.9277
	c0.1162,13.8571-3.5437,27.4283-8.3672,40.3123c-3.2366,9.573-7.9967,19.3998-6.41,29.7556
	c1.4597,7.9756,8.642,12.6616,14.9041,16.8081c-2.8983,1.756-6.5159,3.0042-8.1343,6.2303
	c-2.3271,4.7072-1.8618,11.2231,2.2318,14.8619c2.2426,2.0732,5.4372,2.1896,8.2932,2.7397
	C772.1533,1181.6989,772.1215,1182.7883,772.1109,1183.8884z M763.4053,473.4579c-3.554,3.3849-3.8185,9.044-2.2,13.4338
	c1.4913,3.6389,5.4051,5.1938,8.5361,7.0872c-5.0775,3.7128-11.1489,7.0236-13.6453,13.18
	c-3.4272,7.7113-0.6769,16.2794,1.7876,23.8425c5.6274,15.983,12.4608,32.3893,11.4877,49.6418
	c-2.3589,2.7397-4.6754,5.5958-5.2254,9.3192c-2.9301,1.6924-6.8756,3.3954-7.1824,7.288
	c-0.4445,6.7065-0.0529,13.4446-0.1694,20.1615c-9.8268,3.1945-19.3152,7.2881-28.6341,11.731
	c-4.7285-4.4428-8.8538-9.5519-14.0262-13.508c-3.0466-2.232-6.918-0.8039-10.1654,0.0846
	c-3.004-2.2108-6.6218-2.9301-10.2817-2.7502c-7.8804-7.7007-14.2695-16.8188-19.2093-26.6351
	c-4.4744-8.4305-7.7431-17.4745-12.8417-25.5668c-3.1628-4.9398-7.7429-9.5623-13.7195-10.6519
	c-5.2254-1.375-10.451,0.402-15.6235,1.0895c-0.2009-3.7656,1.8723-7.6055,0.2115-11.2336
	c-2.0521-4.3159-6.3891-7.9229-11.3712-7.7855c-3.184,0.1271-5.7332,2.2215-8.2929,3.8717
	c-0.5818-0.7405-1.1425-1.4705-1.6926-2.1897c0.1797-3.9985-3.4907-7.2248-2.1897-11.2021
	c0.8887-5.4369,1.354-11.4556-1.6817-16.3639c-4.3688-7.3304-12.5878-10.9585-19.95-14.5763
	c-13.8781-6.2303-27.7034-13.1906-38.8207-23.7896c0.4442-3.3849-0.2327-6.6746-1.7876-9.6681
	c1.2269-3.8504,1.4597-7.9652-0.4548-11.6251c0.1057-2.7504,0.899-5.691-0.2753-8.3037c-1.5655-2.6656-3.8714-4.76-5.8917-7.0553
	c61.4152-44.5752,133.2494-74.7433,208.2042-86.6856c0.2324,3.0357-0.0741,6.2514,1.2057,9.118
	c1.3646,2.6233,4.2206,3.8927,6.6324,5.3736c1.0154,4.157,4.0829,7.193,8.0602,8.642c0.603,3.5225,2.6656,6.3467,5.5428,8.3883
	c-0.4971,13.3387-3.9244,26.3495-8.6526,38.7573c-3.0781,8.97-7.288,18.0669-6.4417,27.7563
	c0.9519,7.8275,7.2245,13.4232,13.7404,17.0727c0.55,3.7233,2.7504,6.7699,4.4956,10.0066
	C769.6358,470.6548,765.8277,470.7923,763.4053,473.4579z M822.1125,1441.5336c0.8145,0.4125,1.6926,0.6663,2.6021,0.7827
	C823.8051,1442.2104,822.927,1441.946,822.1125,1441.5336z M880.2484,466.9737c2.3801-1.7666,3.1101-4.5274,3.459-7.3199
	c6.0399-3.2156,11.7628-8.0497,13.4553-14.9889c1.6606-8.7056-1.629-17.2841-4.4641-25.3869
	c-5.1619-13.7195-9.9749-27.9043-9.9643-42.7345c2.5071-2.2849,4.4639-5.0774,5.2254-8.4093
	c3.7975-1.5022,6.9074-4.2947,7.9758-8.3567c2.1579-1.8934,5.0245-3.5118,5.8284-6.4947c0.5077-2.9407,0.4445-5.9343,0.6559-8.8854
	c75.4729,11.752,147.8995,41.9836,209.6321,86.9289c-2.7716,3.1734-7.0659,6.2514-6.4315,11.0327
	c0.6136,5.4159-2.6338,10.7154,0.0319,15.9621c-1.8829,2.8665-2.3906,6.2514-2.1262,9.6257
	c-10.1548,9.7423-22.6154,16.5545-35.3617,22.2347c-8.0393,3.8293-16.9034,7.3622-22.3936,14.735
	c-3.7761,5.0985-4.0194,11.7414-2.6233,17.7179c1.2061,3.9456-2.3904,7.1401-2.0626,11.0962
	c-0.4124,0.5817-1.2057,1.7665-1.5973,2.3483c-3.0145-1.9146-6.2196-4.4111-10.0383-3.7762
	c-6.2303,0.8251-11.9952,7.4574-10.0807,13.8781c-0.0212,1.6077,1.3222,3.5753-0.0103,4.9611
	c-6.0613-1.0156-12.5031-2.7397-18.3951-0.0318c-8.1025,3.7128-12.1857,12.2385-15.8986,19.8335
	c-6.9497,14.883-13.9521,30.5488-26.5188,41.6027c-3.6069,0.6452-7.3621,0.9097-10.3661,3.2156
	c-3.3322-1.0048-7.2565-2.3376-10.3452-0.0528c-5.0351,4.0406-9.1815,9.0334-13.8359,13.4445
	c-9.3086-4.4639-18.8181-8.5046-28.6132-11.7944c-0.1692-6.6006,0.3809-13.233-0.275-19.8123
	c-0.6981-3.6494-4.4109-5.1937-7.2881-6.8227c-0.3386-3.6917-2.3694-6.7275-5.0139-9.1815
	c-0.6136-14.0686,3.1522-27.8093,8.039-40.8519c3.311-9.7316,8.1346-19.717,6.3679-30.2526
	c-1.6394-7.7853-8.695-12.2491-14.7455-16.4803c3.1098-1.8511,6.9391-3.3743,8.4411-6.9603
	c1.7561-4.485,1.2693-10.2711-2.3165-13.7407c-2.3376-2.3271-5.8072-2.5703-8.822-3.3743
	C879.9207,468.8989,880.0686,467.9362,880.2484,466.9737z M902.4407,1306.4858c-0.2645-3.0781-0.1268-6.1774-0.7722-9.1709
	c-0.9095-2.835-3.6599-4.411-5.7648-6.2621c-1.0472-4.0725-4.0829-6.8756-7.9334-8.2825c-0.7298-3.385-2.7395-6.1564-5.2254-8.4624
	c0.0424-14.2061,4.3476-27.9044,9.3509-41.042c2.9828-8.7162,6.9495-17.8661,5.0034-27.2593
	c-1.682-7.0872-7.7855-11.6991-13.7618-15.1263c-0.1271-1.703-0.2433-3.3849-0.3597-5.0562
	c-0.7404-0.3385-2.2106-1.0155-2.9407-1.354c-0.0529-1.2693-0.095-2.5387-0.1162-3.7869c3.0357-0.6453,6.5476-0.7722,8.8218-3.2051
	c3.6813-3.8397,4.0197-10.1442,1.6078-14.7244c-1.7029-3.0148-5.1725-4.1888-7.9228-5.9131
	c5.8813-4.1041,12.7993-8.3247,14.6187-15.8033c2.1156-9.7104-2.1155-19.167-5.1936-28.1794
	c-5.3419-13.8993-9.6683-28.5284-9.0653-43.5913c2.6868-2.4646,4.7706-5.5535,4.9927-9.2874
	c2.9937-1.5127,6.8333-3.0676,7.3834-6.8545c0.5607-6.5371,0.0635-13.1166,0.2221-19.6748
	c9.8586-3.2474,19.4105-7.3622,28.7823-11.826c4.7706,4.5696,9.0971,9.6259,14.1639,13.8887
	c3.0463,2.4965,7.1083,0.9415,10.5143,0.2327c2.9407,2.0416,6.4102,2.9619,9.996,2.5176
	c12.556,11.8473,19.95,27.7035,26.9841,43.1577c3.9985,8.2825,9.3615,17.9824,19.4105,19.4421
	c5.0351,1.3751,10.1125-1.5762,15.0311-0.6664c-0.4127,3.406-2.158,6.9391-0.7298,10.3345
	c1.8934,4.3899,6.2197,8.2507,11.2547,8.0181c3.311,0.127,5.9767-2.105,8.6526-3.7128c0.5924,0.7827,1.2061,1.576,1.83,2.3905
	c-0.3806,2.8561,0.7933,5.3737,2.5918,7.5526c-1.6396,6.6218-2.655,14.1215,1.2905,20.1826
	c5.3733,8.2507,15.1687,11.7731,23.631,15.962c12.1222,5.6486,24.4136,11.7837,33.9548,21.3673
	c1.5549,3.2579,0.9625,7.3727,3.0569,10.5673c-1.5232,3.8926-1.5232,7.9968,0.3491,11.7731
	c-0.4866,2.7502-1.3857,5.5957-0.6769,8.3989c1.0684,2.9618,3.6493,5.0033,5.6802,7.3198
	C1049.526,1264.7773,977.5226,1294.7445,902.4407,1306.4858z M1220.2423,1111.4196c-2.1368-1.8829-4.115-3.9562-6.4844-5.5111
	c-2.6339-1.7771-5.8917-0.8568-8.8007-0.6241c-3.7551-2.0204-7.9122-1.8617-11.7838-0.2855
	c-2.8983-1.9569-6.3573-2.3167-9.7528-2.158c-9.1498-9.8479-15.962-21.5576-21.3884-33.7856
	c-4.1993-8.5153-7.6053-18.2046-15.5282-24.033c-6.0717-4.485-13.9736-3.5964-20.8492-1.8828
	c-2.3164-1.6925-4.8973-2.9935-7.8486-2.5811c-0.5818-0.4231-1.777-1.301-2.38-1.7241c1.6819-2.6656,3.9349-5.363,3.7446-8.7162
	c0.2538-4.6331-3.1099-8.6104-6.9286-10.7788c-3.7446-2.1473-7.9757-0.3703-11.8154,0.4019
	c0.751-6.4208,2.8242-13.1588-0.0317-19.368c-4.0197-8.8431-13.5397-12.8839-21.7482-16.8929
	c-14.3013-6.5371-29.0468-13.6454-39.6987-25.535c-0.5922-3.5964-0.9625-7.2881-3.0039-10.4086
	c0.7086-3.4484,2.105-7.4786-0.3386-10.5673c-3.9984-4.9505-8.9382-9.0441-13.2647-13.6983
	c4.5062-9.2451,8.4941-18.744,11.7415-28.4968c6.5901-0.1481,13.2012,0.2538,19.7911-0.1798
	c4.0303-0.2751,5.9553-4.2523,7.7113-7.3306c3.734-0.4654,6.7698-2.6233,9.2451-5.3524c11.953,0.0635,23.7684,2.4435,35.0232,6.4631
	c11.0011,3.4907,21.8751,9.4777,33.7753,8.4093c8.4412-0.9943,13.4762-8.4834,17.813-14.9782
	c2.0944,3.2368,3.7764,7.4786,7.8278,8.6844c4.2734,0.9203,9.5515,1.0366,12.8414-2.3695c2.4435-2.2953,2.5491-5.8389,3.2157-8.8854
	c1.0366,0.0741,2.0732,0.1693,3.1416,0.2751c1.7561,2.3906,4.4637,3.2685,7.2882,3.607
	c3.5964,6.0294,8.4835,12.1751,15.8245,13.4974c9.4248,1.4915,18.4901-2.5598,27.2169-5.5534
	c12.9896-5.0033,26.5925-8.8748,40.6083-9.1816c2.0626,2.782,4.8765,4.8658,8.3882,5.3524c1.3434,4.009,4.3794,7.0449,8.494,8.1661
	c1.682,2.4858,3.1416,5.4582,5.9872,6.8228c2.7395,1.0472,5.7332,0.7722,8.6315,1.0578
	C1294.8904,978.1913,1264.9337,1050.1102,1220.2423,1111.4196z M1298.1163,749.6882c-2.9301,0.8357-4.5167,3.7023-6.389,5.8602
	c-4.1252,0.9731-6.812,4.1888-8.3564,7.944c-3.5118,0.7087-6.262,2.8984-8.441,5.6274c-13.8674-0.7827-27.3439-4.3898-40.2277-9.446
	c-8.4199-2.856-17.0831-6.6852-26.1484-5.7014c-7.8699,1.026-13.2012,7.5737-16.9564,13.9839
	c-2.7819,0.2433-5.6698,0.7933-7.087,3.533c-1.1002,0.0105-2.1897,0.0423-3.2476,0.074c-0.5607-2.8348-0.6874-6.0187-2.6974-8.2718
	c-3.131-3.8504-8.769-4.2946-13.2435-3.0253c-4.1464,1.1953-5.9446,5.4793-7.8593,8.896
	c-4.1146-6.664-9.3086-13.9416-17.6755-15.1475c-10.8423-1.1741-20.9442,4.0408-30.972,7.3516
	c-12.4183,4.6226-25.5243,7.669-38.8207,7.6796c-2.3695-2.9407-5.5322-5.0457-9.3192-5.5323
	c-1.5973-2.9406-3.2789-6.6323-6.9708-7.2563c-6.3994-1.0261-12.9155-0.0423-19.3573-0.1693
	c-3.8505-9.6153-7.2777-19.4316-12.1328-28.6237c4.432-4.6331,9.2026-8.9277,13.5077-13.6877
	c3.036-2.9512,1.4493-7.4257,0.7725-11.0116c2.1473-3.1628,2.1473-7.0554,3.131-10.5567
	c11.0538-12.1539,26.36-19.0825,41.0104-25.8523c7.5419-3.7657,16.2157-7.6901,19.7277-15.9409
	c2.8771-6.2302,0.7616-12.9896-0.0424-19.3997c5.1515,1.8723,11.5724,2.4963,15.4543-2.1896
	c5.0139-4.485,3.8926-12.1434-0.2963-16.7661c0.5607-0.3701,1.6924-1.1212,2.2533-1.502c2.803-0.3386,5.3628-1.5443,7.9543-2.6021
	c5.8177,0.476,12.0483,2.2847,17.6123-0.4021c8.5573-3.7973,12.4607-12.9473,16.385-20.8171
	c6.3256-13.9098,13.1482-27.989,24.0858-38.9372c3.4166,0.1588,6.8121-0.4124,9.8267-2.0732
	c3.8398,1.4598,7.9655,1.3964,11.6886-0.423c2.7715,0.5182,5.6381,1.3328,8.4729,0.7086c2.9513-1.079,4.9506-3.6705,7.2354-5.6803
	c44.48,61.5844,74.2777,133.6302,86.1143,208.6801C1304.093,749.1488,1301.0465,748.9373,1298.1163,749.6882z"/>
</svg>
